<?xml version="1.0" encoding="utf-8"?>
<!-- Generator: Adobe Illustrator 16.0.0, SVG Export Plug-In . SVG Version: 6.00 Build 0)  -->
<!DOCTYPE svg PUBLIC "-//W3C//DTD SVG 1.1//EN" "http://www.w3.org/Graphics/SVG/1.1/DTD/svg11.dtd">
<svg version="1.1" id="Слой_1" xmlns="http://www.w3.org/2000/svg" xmlns:xlink="http://www.w3.org/1999/xlink" x="0px" y="0px"
	 width="595.28px" height="841.89px" viewBox="0 0 595.28 841.89" enable-background="new 0 0 595.28 841.89" xml:space="preserve">
<path fill="#F6B728" d="M299.358,410.425c-0.351-3.991-0.525-6.763-0.525-8.318h-4.342c0,0.833-0.525,2.685-1.577,5.553
	s-1.577,4.708-1.577,5.519h-0.17c0-0.803-0.462-2.639-1.385-5.508c-0.923-2.868-1.385-4.723-1.385-5.564h-4.376
	c0,0.977-0.273,3.608-0.82,7.896c-0.546,4.288-0.82,6.544-0.82,6.769h2.985c0-0.976,0.088-3.007,0.266-6.093s0.27-5.099,0.277-6.037
	h0.17c0.158,0.938,0.369,1.885,0.633,2.838c0.264,0.954,0.823,2.621,1.679,5.001s1.284,3.811,1.284,4.291h2.499
	c0-0.465,0.447-1.882,1.34-4.251c0.894-2.369,1.502-4.162,1.826-5.378s0.524-2.05,0.599-2.5h0.17c0.007,0.75,0.09,2.641,0.249,5.671
	c0.158,3.029,0.237,5.183,0.237,6.459h3.291C299.884,416.532,299.708,414.417,299.358,410.425z"/>
<path fill="#F6B728" d="M311.807,407.046c-1.074-0.98-2.361-1.47-3.861-1.47c-1.583,0-2.962,0.537-4.139,1.611
	c-1.176,1.074-1.764,2.561-1.764,4.46c0,1.765,0.539,3.133,1.617,4.105c1.078,0.972,2.371,1.458,3.878,1.458
	c1.583,0,2.958-0.533,4.127-1.6c1.168-1.065,1.752-2.545,1.752-4.438C313.418,409.402,312.881,408.026,311.807,407.046z
	 M309.715,414.103c-0.501,0.691-1.152,1.036-1.951,1.036c-0.822,0-1.489-0.369-2.001-1.109c-0.513-0.739-0.769-1.654-0.769-2.743
	c0-1.036,0.25-1.9,0.752-2.59c0.501-0.691,1.151-1.036,1.95-1.036c0.822,0,1.489,0.37,2.001,1.109
	c0.513,0.739,0.769,1.654,0.769,2.742C310.467,412.548,310.216,413.412,309.715,414.103z"/>
<path fill="#F6B728" d="M325.302,411.422c0-2.26,0.045-4.119,0.136-5.576l-3.211,0.327c0.218,1.096,0.339,2.399,0.362,3.908h-4.286
	c0.053-2.335,0.102-3.747,0.147-4.235l-3.211,0.327c0.264,1.501,0.396,3.251,0.396,5.249c0,2.012-0.053,3.795-0.158,5.35h2.985
	c-0.105-1.441-0.158-2.996-0.158-4.663h4.308c0,1.772-0.049,3.327-0.147,4.663h2.985
	C325.351,415.136,325.302,413.352,325.302,411.422L325.302,411.422z"/>
<path fill="#F6B728" d="M337.146,407.046c-1.074-0.98-2.361-1.47-3.861-1.47c-1.583,0-2.962,0.537-4.139,1.611
	c-1.176,1.074-1.764,2.561-1.764,4.46c0,1.765,0.539,3.133,1.617,4.105c1.078,0.972,2.371,1.458,3.878,1.458
	c1.583,0,2.958-0.533,4.127-1.6c1.168-1.065,1.753-2.545,1.753-4.438C338.757,409.402,338.22,408.026,337.146,407.046z
	 M335.054,414.103c-0.501,0.691-1.151,1.036-1.951,1.036c-0.821,0-1.489-0.369-2.001-1.109c-0.513-0.739-0.769-1.654-0.769-2.743
	c0-1.036,0.25-1.9,0.752-2.59c0.501-0.691,1.151-1.036,1.951-1.036c0.821,0,1.488,0.37,2.001,1.109
	c0.513,0.739,0.769,1.654,0.769,2.742C335.806,412.548,335.555,413.412,335.054,414.103z"/>
<path fill="#F6B728" d="M349.94,411.422c0-2.26,0.049-4.119,0.147-5.576l-2.058,0.226h-3.89c-0.181,0.668-0.386,1.329-0.616,1.982
	s-0.477,1.277-0.74,1.87c-0.264,0.593-0.536,1.145-0.814,1.655c-0.279,0.511-0.556,0.959-0.831,1.346
	c-0.275,0.387-0.541,0.697-0.797,0.929c-0.256,0.233-0.49,0.368-0.701,0.406l0.113,2.703c0.453-0.022,0.895-0.164,1.329-0.423
	c0.434-0.259,0.85-0.604,1.25-1.036c0.399-0.432,0.776-0.933,1.131-1.504c0.354-0.571,0.684-1.183,0.989-1.836
	s0.579-1.327,0.82-2.022c0.241-0.694,0.445-1.383,0.61-2.067h1.278c0.06,1.202,0.09,2.392,0.09,3.571
	c0,2.012-0.049,3.721-0.147,5.125h2.997C349.992,415.136,349.94,413.352,349.94,411.422L349.94,411.422z"/>
<path fill="#F6B728" d="M362.592,411.422c0-2.275,0.045-4.134,0.136-5.576l-2.454,0.327c0,0.473-0.739,1.592-2.216,3.356
	c-1.568,1.87-2.423,3.041-2.566,3.514h-0.17c0.083-1.179,0.125-2.144,0.125-2.895c0-1.426,0.045-2.861,0.136-4.303l-3.211,0.327
	c0.256,1.329,0.384,3.079,0.384,5.249c0,1.93-0.049,3.713-0.146,5.35h2.34c0-0.51,0.739-1.622,2.216-3.333
	c1.598-1.854,2.495-3.064,2.691-3.627h0.169c-0.083,0.991-0.124,1.821-0.124,2.489c0,1.652-0.049,3.143-0.147,4.471h2.985
	C362.641,415.008,362.592,413.224,362.592,411.422L362.592,411.422z"/>
<path fill="#F6B728" d="M364.526,406.072l-0.079,2.286c1.183-0.112,2.321-0.168,3.415-0.168c0.038,1.096,0.057,2.196,0.057,3.3
	c0,2.013-0.053,3.773-0.158,5.282h3.042c-0.106-1.591-0.159-3.353-0.159-5.282c0-1.141,0.012-2.241,0.034-3.3
	c1.078,0,2.164,0.056,3.256,0.168l0.068-2.286H364.526z"/>
<path fill="#F6B728" d="M306.041,432.384c0-2.568,0.045-4.884,0.136-6.949h-11.285c0.091,2.17,0.136,4.487,0.136,6.949
	c0,2.553-0.045,5.125-0.136,7.716h3.166c-0.075-2.208-0.113-4.735-0.113-7.581c0-1.584-0.064-3.161-0.192-4.73h5.552
	c-0.121,1.629-0.181,3.255-0.181,4.877c0,2.823-0.038,5.301-0.113,7.434h3.166C306.086,437.569,306.041,434.997,306.041,432.384
	L306.041,432.384z"/>
<path fill="#F6B728" d="M318.348,430.374c-1.074-0.979-2.361-1.47-3.861-1.47c-1.583,0-2.962,0.537-4.138,1.611
	c-1.176,1.074-1.764,2.561-1.764,4.46c0,1.765,0.539,3.133,1.617,4.105c1.078,0.973,2.371,1.459,3.878,1.459
	c1.583,0,2.958-0.533,4.127-1.6c1.168-1.066,1.752-2.545,1.752-4.438C319.959,432.729,319.422,431.354,318.348,430.374z
	 M316.256,437.43c-0.501,0.69-1.152,1.036-1.951,1.036c-0.822,0-1.489-0.37-2.001-1.109c-0.513-0.739-0.769-1.653-0.769-2.743
	c0-1.036,0.25-1.899,0.752-2.59c0.501-0.691,1.151-1.036,1.95-1.036c0.822,0,1.489,0.37,2.001,1.109
	c0.513,0.74,0.769,1.654,0.769,2.742C317.008,435.875,316.758,436.739,316.256,437.43z"/>
<path fill="#F6B728" d="M336.999,434.749c0-2.275,0.045-4.133,0.136-5.575l-3.144,0.327c0.256,1.495,0.385,3.244,0.385,5.249
	c0,1.014,0.034,2.122,0.102,3.323h-3.539c-0.045-1.231-0.068-2.339-0.068-3.323c0-2.26,0.049-4.119,0.147-5.575l-3.144,0.327
	c0.256,1.502,0.385,3.251,0.385,5.249c0,1.059-0.023,2.167-0.068,3.323h-3.55c0.068-1.231,0.102-2.339,0.102-3.323
	c0-2.26,0.045-4.119,0.136-5.575l-3.144,0.327c0.256,1.502,0.385,3.251,0.385,5.249c0,2.013-0.049,3.796-0.147,5.351h15.185
	C337.052,438.335,336.999,436.552,336.999,434.749L336.999,434.749z"/>
<path fill="#F6B728" d="M349.493,434.749c0-2.275,0.045-4.133,0.136-5.575l-2.454,0.327c0,0.473-0.739,1.592-2.216,3.356
	c-1.568,1.87-2.423,3.041-2.566,3.514h-0.17c0.083-1.179,0.125-2.144,0.125-2.895c0-1.426,0.045-2.86,0.136-4.302l-3.211,0.327
	c0.256,1.33,0.385,3.079,0.385,5.249c0,1.93-0.049,3.713-0.147,5.351h2.34c0-0.511,0.739-1.622,2.216-3.334
	c1.598-1.854,2.495-3.063,2.691-3.627h0.169c-0.083,0.992-0.124,1.821-0.124,2.489c0,1.652-0.049,3.143-0.147,4.472h2.985
	C349.542,438.335,349.493,436.552,349.493,434.749L349.493,434.749z"/>
<path fill="#F6B728" d="M359.432,434.344v-0.169c1.206-0.488,1.809-1.306,1.809-2.456c0-1.629-1.338-2.444-4.014-2.444
	c-1.244,0-2.394,0.041-3.449,0.124h-2.001c0.256,1.525,0.384,3.304,0.384,5.339c0,2.26-0.049,4.047-0.147,5.361
	c0.264,0,0.946,0.011,2.046,0.033c1.101,0.023,1.982,0.034,2.646,0.034c1.425,0,2.619-0.251,3.584-0.755
	c0.964-0.503,1.447-1.333,1.447-2.489C361.739,435.496,360.97,434.637,359.432,434.344L359.432,434.344z M356.843,438.331
	c-0.686,0-1.372-0.034-2.058-0.101c-0.022-0.75-0.034-1.67-0.034-2.76c0.588-0.045,1.104-0.067,1.549-0.067
	c0.95,0,1.646,0.105,2.086,0.315c0.441,0.211,0.661,0.59,0.661,1.138C359.047,437.839,358.313,438.331,356.843,438.331
	L356.843,438.331z M356.549,433.826c-0.498,0-1.097-0.015-1.798-0.045c0-0.856-0.026-1.738-0.079-2.647
	c0.671-0.052,1.323-0.079,1.956-0.079c1.342,0,2.013,0.432,2.013,1.295C358.641,433.334,357.943,433.826,356.549,433.826
	L356.549,433.826z"/>
<path fill-rule="evenodd" clip-rule="evenodd" fill="#F6B728" d="M222.001,450.493l5.527-20.56l7.896-3.54l-4.963,24.1H222.001z"/>
<path fill-rule="evenodd" clip-rule="evenodd" fill="#F6B728" d="M278.849,450.493l-3.553-14.945l-8.29-4.719l3.835,19.665H278.849z
	"/>
<g>
	<polygon fill-rule="evenodd" clip-rule="evenodd" fill="#F6B728" points="255.162,431.506 270.585,441.584 270.007,438.267 	"/>
	<polygon fill-rule="evenodd" clip-rule="evenodd" fill="#F6B728" points="271.168,444.93 270.592,441.624 255.162,435.575 	"/>
	<polygon fill-rule="evenodd" clip-rule="evenodd" fill="#F6B728" points="271.177,444.982 255.162,438.965 271.404,448.458 
		254.485,441.677 253.809,441.677 253.809,391.591 234.239,402.118 229.501,450.493 254.147,445.746 272.137,450.493 	"/>
	<polygon fill-rule="evenodd" clip-rule="evenodd" fill="#F6B728" points="263.283,405.061 254.485,396.924 263.96,408.452 
		255.162,401.67 264.637,411.842 255.162,405.739 265.313,415.91 255.162,409.129 266.667,419.979 255.162,412.52 266.667,423.369 
		255.162,415.91 267.344,427.438 255.162,419.979 268.021,430.828 255.162,424.047 269.374,434.896 255.162,428.116 
		270.005,438.256 263.847,402.905 253.978,391.5 253.854,391.566 	"/>
</g>
</svg>
