<?xml version="1.0" encoding="utf-8"?>
<!-- Generator: Adobe Illustrator 16.0.0, SVG Export Plug-In . SVG Version: 6.00 Build 0)  -->
<!DOCTYPE svg PUBLIC "-//W3C//DTD SVG 1.1//EN" "http://www.w3.org/Graphics/SVG/1.1/DTD/svg11.dtd">
<svg version="1.1" id="Слой_1" xmlns="http://www.w3.org/2000/svg" xmlns:xlink="http://www.w3.org/1999/xlink" x="0px" y="0px"
	 width="595.28px" height="841.89px" viewBox="0 0 595.28 841.89" enable-background="new 0 0 595.28 841.89" xml:space="preserve">
<path fill="#F6B728" d="M307.998,424.957c0.005-0.13-0.045-0.255-0.137-0.344l-4.443-4.301c-0.089-0.085-0.208-0.129-0.331-0.121
	c-0.121,0.008-0.233,0.069-0.31,0.167c-0.229,0.296-1.027,1.14-1.661,1.14c-0.174,0-0.319-0.064-0.46-0.203
	c-1.118-1.097-3.479-3.575-3.493-3.589c-0.03-0.037-0.737-0.9,0.566-2.635c0.125-0.167,0.121-0.399-0.009-0.562l-3.514-4.354
	c-0.137-0.169-0.374-0.213-0.559-0.1c-0.093,0.058-2.289,1.417-2.694,3.905c-0.273,1.68,0.335,3.433,1.809,5.214
	c0.008,0.01,0.016,0.019,0.023,0.027l5.643,5.798c0.077,0.088,1.926,2.156,4.78,2.156c0.248,0,0.495-0.02,0.742-0.052
	c0.093,0.487,0.12,1.586-1.057,2.795c-0.508,0.522-1.107,0.619-1.527,0.607c-0.775-0.022-1.604-0.431-2.16-1.069
	c-0.007-0.007-0.013-0.015-0.021-0.021l-6.371-6.719c-0.02-0.021-0.041-0.041-0.063-0.06c-0.674-0.561-2.332-1.251-3.782,0.15
	c-1.424,1.373-0.977,3.146-0.542,3.891c0.03,0.053,0.067,0.101,0.109,0.145l2.59,2.661c0.285,0.292,0.745,0.292,1.029,0
	c0.285-0.292,0.285-0.766,0-1.058l-2.516-2.586c-0.125-0.258-0.485-1.18,0.326-1.963c0.808-0.78,1.629-0.258,1.843-0.098
	l6.323,6.669c0.827,0.94,2.02,1.521,3.193,1.553c0.037,0.001,0.073,0.002,0.109,0.002c0.961,0,1.82-0.36,2.487-1.046
	c1.668-1.714,1.61-3.387,1.441-4.205c0.835-0.31,1.661-0.795,2.471-1.463C307.933,425.208,307.993,425.087,307.998,424.957z"/>
</svg>
